<svg id="图层_1" data-name="图层 1" xmlns="http://www.w3.org/2000/svg" viewBox="0 0 40 40"><defs><style>.cls-1{fill:none;}.cls-2{fill:#d2eaff;}.cls-3{fill:#2e85ed;}</style></defs><title>3</title><g id="页面-1"><g id="画板"><rect id="矩形" class="cls-1" width="40" height="40"/><g id="编组"><path id="路径" class="cls-2" d="M20.56,24.7A30.83,30.83,0,0,1,7.64,21.93v9.7H6.09a.92.92,0,0,0-.94.39,1,1,0,0,0,0,1,.9.9,0,0,0,.94.39H34.91a.9.9,0,0,0,.94-.39,1,1,0,0,0,0-1,.92.92,0,0,0-.94-.39H33.23V22a31.07,31.07,0,0,1-9.46,2.54c.12,0-2.73.18-3.19.18Z" transform="translate(0 0)"/><path id="形状" class="cls-3" d="M35.16,31.65h-.8v-13a4.53,4.53,0,0,0-1.43-3.39,4.85,4.85,0,0,0-3.42-1.43H24.3a.91.91,0,0,0,0,1.79h5.21a2.79,2.79,0,0,1,2.1.91,2.94,2.94,0,0,1,.92,2.14v13l-9.11-.06a.52.52,0,0,0-.3.06h-.79V11.84a4.79,4.79,0,0,0-1.41-3.43A4.88,4.88,0,0,0,17.47,7H12.21a4.83,4.83,0,0,0-4.86,4.84V31.66H6.1a.92.92,0,0,0-.94.38.92.92,0,0,0,.94,1.41h29a.92.92,0,0,0,.92-.92.85.85,0,0,0-.22-.64.86.86,0,0,0-.62-.27Zm-25.87,0V11.84a3,3,0,0,1,3-3h5.24a3.06,3.06,0,0,1,3.06,3V31.66Z" transform="translate(0 0)"/><path class="cls-3" d="M17.25,20.33H12.84a.93.93,0,0,0-.94.38.89.89,0,0,0,0,1,.93.93,0,0,0,.94.38h4.41a.94.94,0,0,0,.64-.26.9.9,0,0,0,.27-.63.85.85,0,0,0-.26-.65.87.87,0,0,0-.65-.25Zm0,5.94H12.84a.92.92,0,0,0-.94.37.87.87,0,0,0,0,1,.9.9,0,0,0,.94.37h4.41a.89.89,0,0,0,.91-.86.85.85,0,0,0-.26-.65.87.87,0,0,0-.65-.25Zm0-11.77H12.84a.91.91,0,0,0-.73.88.9.9,0,0,0,.73.87h4.41a.9.9,0,0,0,.91-.89.83.83,0,0,0-.91-.89ZM25.1,28h4.41a.91.91,0,0,0,.94-.37.87.87,0,0,0,0-1,.93.93,0,0,0-.94-.37H25.1a.9.9,0,0,0-.91.89.83.83,0,0,0,.27.63.88.88,0,0,0,.64.24Zm0-5.93h4.41a.91.91,0,0,0,.93-.38.86.86,0,0,0,0-1,.91.91,0,0,0-.93-.38H25.1a.9.9,0,0,0-.91.89.86.86,0,0,0,.26.64.87.87,0,0,0,.65.25Z" transform="translate(0 0)"/></g></g></g></svg>