<svg id="图层_1" data-name="图层 1" xmlns="http://www.w3.org/2000/svg" viewBox="0 0 40 40"><defs><style>.cls-1{fill:none;}.cls-2{fill:#d2eaff;}.cls-3{fill:#2e85ed;}</style></defs><title>4</title><g id="页面-1"><g id="画板"><rect id="矩形" class="cls-1" width="40" height="40"/><g id="编组"><path id="路径" class="cls-2" d="M8.84,30.17c.25-2.73,6.58-4.61,11.66-4.58,5.31,0,11.6,2.17,11.67,4.58,0,1.14-1.28,2.11-2.65,2.86L9.9,32.45A3.07,3.07,0,0,1,8.84,30.17Z" transform="translate(0 0)"/><path id="形状" class="cls-3" d="M30.71,19.26a4.45,4.45,0,0,1-3.41-1.54,4.52,4.52,0,0,1-6.81,0,4.52,4.52,0,0,1-6.81,0C11.46,20.5,6,19.57,6,15a.43.43,0,0,1,.1-.31l2.24-6.9A.85.85,0,0,1,9.12,7H31.79a1.1,1.1,0,0,1,.87.62l2.24,6.89c0,.1.1.21.1.31a4.23,4.23,0,0,1-4.3,4.42ZM28.2,14.84a2.37,2.37,0,0,0,2.53,2.47A2.46,2.46,0,0,0,33.26,15l-2-6H9.8L7.75,15a2.36,2.36,0,0,0,2.53,2.27,2.36,2.36,0,0,0,2.53-2.47.88.88,0,0,1,1.76,0,2.37,2.37,0,0,0,2.53,2.47,2.37,2.37,0,0,0,2.53-2.47.88.88,0,1,1,1.75,0,2.37,2.37,0,0,0,2.53,2.47,2.37,2.37,0,0,0,2.53-2.47.88.88,0,0,1,1.76,0Zm2,18.93H10.77a2.81,2.81,0,0,1-2.08-.89,3.13,3.13,0,0,1-.84-2.19V21.42a1,1,0,0,1,.27-.74.85.85,0,0,1,.7-.28.87.87,0,0,1,.71.28,1,1,0,0,1,.27.74v9.27a1,1,0,0,0,.27.74.85.85,0,0,0,.7.28H30.24a.89.89,0,0,0,.71-.28,1,1,0,0,0,.26-.74V21.42a1,1,0,0,1,1.95,0v9.27a3,3,0,0,1-2.92,3.08ZM13.4,26.26l3.88-4.12a1.05,1.05,0,0,0,.31-1,1,1,0,0,0-.71-.75,1,1,0,0,0-1,.32L12,24.82a1,1,0,0,0,0,1.44.89.89,0,0,0,.69.31.86.86,0,0,0,.68-.31Zm3.41,2.57,6.32-6.69a1,1,0,0,0,.27-1,1,1,0,0,0-.69-.73,1,1,0,0,0-.94.28l-6.32,6.69a1,1,0,0,0,0,1.44.89.89,0,0,0,.68.31.92.92,0,0,0,.68-.31Z" transform="translate(0 0)"/></g></g></g></svg>