<svg id="图层_1" data-name="图层 1" xmlns="http://www.w3.org/2000/svg" viewBox="0 0 40 40"><defs><style>.cls-1{fill:none;}.cls-2{fill:#fff;}</style></defs><title>xitongguanliyuan</title><g id="控件"><g id="xitongguanliyuan"><rect id="矩形" class="cls-1" width="40" height="40"/><g id="形状"><path class="cls-2" d="M20,5A15,15,0,1,0,35,20,15,15,0,0,0,20,5Zm-.56,27.75c-5.08-.12-9.81-4.13-9.39-4.48.69-.56.56-1.73,4-2.24s2.92-2.33,3-2.26c0-.68-.09-1.65-.09-1.65a4.62,4.62,0,0,1-1.85-2.26A1.22,1.22,0,0,1,14,18.56s-.33-2.33.41-2.29c0,0,.42,0,.3-.53,0-.89,0-2.57,0-3.17s.49-2.2,1.72-2.43A6.26,6.26,0,0,1,17.65,10a2.43,2.43,0,0,1,1.05-.29l1.6-.27c.77,0,1.26,1.09,1.66,1.14a5.09,5.09,0,0,1,1.35,0c1.22.25,1.05,2,1.12,2.54a14.66,14.66,0,0,1,0,2.81c-.12.54.25.47.25.47.87,0,.61,2.29.61,2.29-.14.61-.46.68-1.28,1.21a6,6,0,0,1-1.61,2.43s-.12,1.16-.12,1.42c0,.11-.58,1.88,2.82,2.38s3.41,1.56,4,2.24C29.47,28.73,24.5,32.88,19.44,32.76Z" transform="translate(0 0)"/></g></g></g></svg>