<svg id="图层_1" data-name="图层 1" xmlns="http://www.w3.org/2000/svg" viewBox="0 0 40 40"><defs><style>.cls-1{fill:none;}.cls-2{fill:#e0eaf3;}.cls-3{fill:#a8b8c7;}</style></defs><title>未激活2</title><g id="页面-1"><g id="画板"><rect id="矩形" class="cls-1" width="40" height="40"/><g id="编组"><path id="路径" class="cls-2" d="M20.06,6.74s1.71,20.55-12,22.31L7.49,8.5l4-1.76Z" transform="translate(0 0)"/><path id="形状" class="cls-3" d="M30.11,13.15V11.44A3.22,3.22,0,0,0,27.16,8H10.92A3.21,3.21,0,0,0,8,11.44v17.7a3.2,3.2,0,0,0,2.94,3.4h3.93a1,1,0,1,1,0,2H10.92A5.19,5.19,0,0,1,6,29.14V11.44A5.21,5.21,0,0,1,10.92,6H27.16a5.21,5.21,0,0,1,4.91,5.44v1.7a1,1,0,1,1-2,0ZM9.93,21.31a1,1,0,0,1,1-1H16.8a1,1,0,0,1,0,2.05H10.92a1,1,0,0,1-1-1Zm0-6.12a1,1,0,0,1,1-1h7.87a1,1,0,1,1,0,2H10.92a1,1,0,0,1-1-1Zm12.8,10.47a6.19,6.19,0,0,1-2.46-5A5.88,5.88,0,0,1,32,20.7a6.19,6.19,0,0,1-2.46,5A10.22,10.22,0,0,1,35,34a1,1,0,0,1-.48.88A1,1,0,0,1,33,34c0-2.83-3.08-7.15-6.88-7.15s-6.86,4.3-6.86,7.15a1,1,0,0,1-.5.88,1,1,0,0,1-1,0,1,1,0,0,1-.48-.88,10.2,10.2,0,0,1,5.41-8.32Zm7.37-5a3.94,3.94,0,1,0-3.93,4.12,4,4,0,0,0,3.93-4.09Z" transform="translate(0 0)"/></g></g></g></svg>