<?xml version="1.0" standalone="no"?><!DOCTYPE svg PUBLIC "-//W3C//DTD SVG 1.1//EN" "http://www.w3.org/Graphics/SVG/1.1/DTD/svg11.dtd"><svg t="1616048939115" class="icon" viewBox="0 0 1653 1024" version="1.1" xmlns="http://www.w3.org/2000/svg" p-id="7172" xmlns:xlink="http://www.w3.org/1999/xlink" width="322.8515625" height="200"><defs><style type="text/css"></style></defs><path d="M1653.962813 70.363783V38.907033l-25.662085-19.039612h-484.268392a72.019402 72.019402 0 0 0-69.535974 53.807599 72.019402 72.019402 0 0 0 71.191593 73.67502h259.932094v6.622474l-394.864996 413.904608L918.86823 662.247373 635.757478 364.236055a70.363783 70.363783 0 0 0-50.496362-21.52304 68.708165 68.708165 0 0 0-50.496363 21.52304L20.69523 898.172999a76.158448 76.158448 0 0 0 0 104.303961 69.535974 69.535974 0 0 0 100.164916 0l463.57316-482.612772 283.110752 294.70008a71.191593 71.191593 0 0 0 101.820534 0l331.123686-346.024252 202.813258-211.09135v273.177041a71.191593 71.191593 0 1 0 142.383185 0V82.780922s8.278092-9.933711 8.278092-12.417139z" fill="#666666" p-id="7173"></path></svg>